#!OML:ASF H:\charlestonDancing\Project 1\Capture day 1\Session 1\femaleDancer.ASF
:FULLY-SPECIFIED
:DEGREES
269
root -0.942836 18.0676 -2.28518 -163.906 -105.885 166.62
lowerback 19.2334 1.20304 9.21044
upperback 3.07796 3.39299 1.50815
thorax -6.95687 1.36086 -4.41065
lowerneck 0.0671997 -3.70762 -0.780479
upperneck 12.5401 -5.31283 1.61309
head 4.16391 -2.6529 0.476631
rclavicle -5.60573e-014 -3.18055e-015
rhumerus -38.8384 -5.88712 -76.6768
rradius 31.9113
rwrist 20.2148
rhand -38.4386 -38.5605
rfingers 7.12502
rthumb -11.4623 -68.2271
lclavicle -5.60573e-014 -3.18055e-015
lhumerus -51.7976 24.6004 15.4608
lradius 141.676
lwrist 4.77388
lhand -5.78178 -9.82344
lfingers 7.12502
lthumb 20.0421 19.1629
rfemur -16.6283 -1.51799 28.1923
rtibia 30.4963
rfoot -12.7944 -2.28851
rtoes -16.4642
lfemur -45.7549 -10.9221 -19.2095
ltibia 103.372
lfoot -13.8928 -9.43728
ltoes -29.368
270
root -0.94793 18.1635 -2.28132 -166.323 -105.149 169.089
lowerback 19.5044 1.35171 8.71307
upperback 3.38387 3.44777 1.0208
thorax -6.75755 1.41097 -4.67725
lowerneck 0.0573443 -3.74713 -0.746083
upperneck 11.8632 -5.36265 1.89067
head 3.93245 -2.66238 0.567423
rclavicle -2.04748e-014 -2.06736e-014
rhumerus -39.2598 -5.67133 -77.3333
rradius 32.8246
rwrist 17.6666
rhand -38.9062 -38.9281
rfingers 7.12502
rthumb -11.9132 -68.5692
lclavicle -2.04748e-014 -2.06736e-014
lhumerus -52.247 24.339 15.6805
lradius 141.526
lwrist 4.56055
lhand -6.04637 -10.5378
lfingers 7.12502
lthumb 19.7878 18.475
rfemur -16.0647 -1.56758 27.2998
rtibia 29.5778
rfoot -11.8057 -1.78407
rtoes -16.7336
lfemur -46.848 -11.3949 -20.3
ltibia 100.653
lfoot -14.9143 -8.82163
ltoes -31.2561
271
root -0.93464 18.2144 -2.28123 -167.887 -104.194 170.613
lowerback 20.065 1.56597 8.40105
upperback 3.71083 3.64967 0.614185
thorax -6.66181 1.51931 -5.00861
lowerneck 0.044657 -3.74832 -0.676272
upperneck 10.9339 -5.3346 2.0374
head 3.60806 -2.63833 0.613126
rclavicle 3.00165e-014 3.49861e-014
rhumerus -39.5336 -5.17456 -78.0545
rradius 33.8299
rwrist 16.0698
rhand -39.1036 -39.296
rfingers 7.12502
rthumb -12.1035 -68.9259
lclavicle 3.00165e-014 3.49861e-014
lhumerus -52.7355 24.1617 15.7535
lradius 141.401
lwrist 4.37137
lhand -6.5966 -11.1752
lfingers 7.12502
lthumb 19.2588 17.8912
rfemur -15.8529 -1.49032 26.7291
rtibia 29.2196
rfoot -10.9659 -1.32255
rtoes -16.323
lfemur -47.8526 -11.3244 -20.9547
ltibia 96.7844
lfoot -15.1323 -8.80327
ltoes -28.9115
272
root -0.91355 18.2596 -2.28925 -168.745 -103.002 171.31
lowerback 20.8603 1.8731 8.12706
upperback 4.05983 3.9971 0.31841
thorax -6.64724 1.69011 -5.2907
lowerneck 0.0773412 -3.73041 -0.415116
upperneck 9.80334 -5.25389 1.91306
head 3.19415 -2.59299 0.541857
rclavicle 3.45885e-014 -6.36111e-015
rhumerus -39.6379 -4.42741 -78.7472
rradius 34.866
rwrist 15.2364
rhand -39.1905 -39.5752
rfingers 7.12502
rthumb -12.1873 -69.2001
lclavicle 3.45885e-014 -6.36111e-015
lhumerus -53.3021 23.9882 15.6285
lradius 141.329
lwrist 4.21714
lhand -7.43085 -11.3865
lfingers 7.12502
lthumb 18.4564 17.758
rfemur -15.8363 -1.25727 26.454
rtibia 29.3084
rfoot -10.2217 -1.07547
rtoes -16.2013
lfemur -48.384 -10.792 -21.2354
ltibia 91.9112
lfoot -16.048 -8.20039
ltoes -29.8022
273
root -0.899213 18.2775 -2.29403 -170.107 -101.817 172.451
lowerback 21.5669 2.18987 7.76677
upperback 4.48202 4.31897 0.0851256
thorax -6.51636 1.85583 -5.44579
lowerneck -0.0408052 -3.69944 -0.253263
upperneck 8.74211 -5.15752 1.75536
head 2.84169 -2.5441 0.474367
rclavicle -1.63003e-014 4.77083e-015
rhumerus -39.5169 -3.24633 -79.3965
rradius 35.8513
rwrist 14.6859
rhand -39.3357 -39.5916
rfingers 7.12502
rthumb -12.3274 -69.2082
lclavicle -1.63003e-014 4.77083e-015
lhumerus -53.9971 23.9313 15.2422
lradius 141.258
lwrist 4.2235
lhand -8.58839 -11.2074
lfingers 7.12502
lthumb 17.3426 18.0389
rfemur -15.8882 -1.29726 26.1405
rtibia 29.7476
rfoot -9.9936 -0.80253
rtoes -15.6322
lfemur -48.3913 -10.3352 -21.531
ltibia 86.0365
lfoot -16.8859 -7.5091
ltoes -29.9652
274
root -0.891583 18.2708 -2.28986 -171.504 -100.734 173.67
lowerback 22.0857 2.46006 7.51575
upperback 4.89112 4.58889 -0.0961752
thorax -6.30196 1.9986 -5.5837
lowerneck -0.186802 -3.61289 -0.301596
upperneck 7.7234 -4.99432 1.66513
head 2.52239 -2.46676 0.464987
rclavicle 5.46658e-014 -2.38542e-015
rhumerus -39.3592 -1.66819 -80.0174
rradius 36.8283
rwrist 14.3088
rhand -39.5064 -39.3888
rfingers 7.12502
rthumb -12.4919 -68.9954
lclavicle 5.46658e-014 -2.38542e-015
lhumerus -54.7832 23.9512 14.5069
lradius 141.117
lwrist 4.46649
lhand -9.76962 -11.1308
lfingers 7.12502
lthumb 16.2055 18.2118
rfemur -15.9858 -1.821 25.8605
rtibia 30.2121
rfoot -10.2774 -0.172396
rtoes -14.8104
lfemur -48.0781 -10.0817 -21.6885
ltibia 79.3378
lfoot -17.117 -6.63082
ltoes -28.0114
275
root -0.884081 18.2477 -2.28024 -172.501 -99.6604 174.556
lowerback 22.5348 2.71247 7.3926
upperback 5.17609 4.87255 -0.227711
thorax -6.1774 2.14039 -5.74551
lowerneck -0.166747 -3.47451 -0.303319
upperneck 6.72554 -4.75841 1.37846
head 2.17706 -2.35808 0.390252
rclavicle 4.19436e-014 8.74653e-015
rhumerus -39.3794 0.0421028 -80.5391
rradius 37.9408
rwrist 14.0889
rhand -39.3645 -39.1936
rfingers 7.12502
rthumb -12.3551 -68.8085
lclavicle 4.19436e-014 8.74653e-015
lhumerus -55.521 23.8661 13.427
lradius 140.943
lwrist 5.04344
lhand -10.6403 -10.9931
lfingers 7.12502
lthumb 15.367 18.4158
rfemur -16.2003 -2.43918 25.6756
rtibia 30.7234
rfoot -10.8097 0.506124
rtoes -15.1266
lfemur -47.545 -9.98821 -21.5619
ltibia 71.9014
lfoot -17.3434 -7.47474
ltoes -27.0119
